<?xml version="1.0" encoding="UTF-8"?>
<svg id="Layer_2" data-name="Layer 2" xmlns="http://www.w3.org/2000/svg" viewBox="0 0 391.66 256.69">
  <defs>
    <style>
      .cls-1 {
        fill: #706f6f;
      }

      .cls-2 {
        fill: #313366;
      }

      .cls-3 {
        fill: #cc8a0c;
      }
    </style>
  </defs>
  <g id="Layer_1-2" data-name="Layer 1">
    <g>
      <g>
        <path class="cls-2" d="M14.31,155.62h5.58v24.3c0,6.11-4.12,9.75-9.94,9.75s-9.94-3.64-9.94-9.75h5.58c.05,2.81,1.41,4.85,4.37,4.85s4.37-2.04,4.37-4.85v-24.3Z"/>
        <path class="cls-2" d="M57.77,172.59c0,10.38-7.08,16.74-17.9,16.74h-11.01v-33.71h11.01c10.82,0,17.9,6.55,17.9,16.98ZM39.87,184.82c7.96,0,12.22-4.56,12.22-12.22s-4.27-12.47-12.22-12.47h-5.48v24.69h5.48Z"/>
        <path class="cls-2" d="M87.5,155.62c8,0,11.93,4.61,11.93,10.09,0,3.98-2.13,8.25-7.81,9.65l8.34,13.97h-6.6l-7.76-13.49h-4.22v13.49h-5.53v-33.71h11.64ZM87.5,160.13h-6.11v11.3h6.11c4.32,0,6.26-2.38,6.26-5.72s-1.94-5.58-6.26-5.58Z"/>
        <path class="cls-2" d="M126.84,182.44h-14.12l-2.42,6.89h-5.77l12.08-33.76h6.4l12.08,33.76h-5.82l-2.42-6.89ZM119.81,162.26l-5.53,15.67h11.01l-5.48-15.67Z"/>
        <path class="cls-2" d="M138.58,155.62h23.53v4.51h-8.97v29.2h-5.53v-29.2h-9.02v-4.51Z"/>
        <path class="cls-2" d="M167.68,155.62h5.53v33.71h-5.53v-33.71Z"/>
        <path class="cls-2" d="M195.87,189.67c-9.51,0-17.22-7.13-17.22-17.27s7.71-17.22,17.22-17.22,17.22,7.13,17.22,17.22-7.62,17.27-17.22,17.27ZM195.87,184.87c6.69,0,11.54-4.85,11.54-12.47s-4.85-12.37-11.54-12.37-11.54,4.75-11.54,12.37,4.85,12.47,11.54,12.47Z"/>
        <path class="cls-2" d="M238.78,189.69c-5.17,0-8.81-2.83-9.05-6.87h3.8c.2,2.14,2.1,3.76,5.21,3.76,2.91,0,4.53-1.46,4.53-3.27,0-4.93-13.1-2.06-13.1-10.31,0-3.4,3.19-6.18,8.12-6.18s8.12,2.63,8.37,6.95h-3.68c-.16-2.22-1.86-3.84-4.81-3.84-2.71,0-4.33,1.29-4.33,3.07,0,5.25,12.85,2.38,13.02,10.31,0,3.64-3.19,6.39-8.08,6.39Z"/>
        <path class="cls-2" d="M264.01,166.81c5.94,0,10.51,4.45,10.51,11.36s-4.57,11.52-10.51,11.52c-4.04,0-6.91-2.18-8.29-4.45v14.59h-3.68v-32.66h3.68v4.08c1.33-2.34,4.24-4.45,8.29-4.45ZM263.24,170.01c-4,0-7.52,3.07-7.52,8.21s3.52,8.25,7.52,8.25,7.52-3.07,7.52-8.29-3.44-8.17-7.52-8.17Z"/>
        <path class="cls-2" d="M280.54,189.57c-1.42,0-2.51-1.09-2.51-2.51s1.09-2.51,2.51-2.51c1.33,0,2.43,1.09,2.43,2.51s-1.09,2.51-2.43,2.51Z"/>
        <path class="cls-2" d="M312.19,170.17l-10.79,16.13h10.87v3.03h-15.08v-3.03l10.75-16.13h-10.67v-2.99h14.92v2.99Z"/>
        <path class="cls-2" d="M337.49,189.69c-6.26,0-11.03-4.45-11.03-11.48s4.93-11.4,11.2-11.4,11.2,4.41,11.2,11.4-5.05,11.48-11.36,11.48ZM337.49,186.46c3.84,0,7.6-2.63,7.6-8.25s-3.68-8.21-7.48-8.21-7.4,2.63-7.4,8.21,3.44,8.25,7.28,8.25Z"/>
        <path class="cls-2" d="M354.87,189.57c-1.41,0-2.51-1.09-2.51-2.51s1.09-2.51,2.51-2.51c1.33,0,2.43,1.09,2.43,2.51s-1.09,2.51-2.43,2.51Z"/>
        <path class="cls-2" d="M371.85,189.69c-6.26,0-11.03-4.45-11.03-11.48s4.93-11.4,11.2-11.4,11.2,4.41,11.2,11.4-5.05,11.48-11.36,11.48ZM371.85,186.46c3.84,0,7.6-2.63,7.6-8.25s-3.68-8.21-7.48-8.21-7.4,2.63-7.4,8.21,3.44,8.25,7.28,8.25Z"/>
        <path class="cls-2" d="M389.23,189.57c-1.41,0-2.51-1.09-2.51-2.51s1.09-2.51,2.51-2.51c1.33,0,2.43,1.09,2.43,2.51s-1.09,2.51-2.43,2.51Z"/>
        <path class="cls-1" d="M9.91,213.39c.87-1.58,2.07-2.81,3.58-3.7,1.51-.88,3.2-1.32,5.06-1.32,2.27,0,4.21.54,5.83,1.62s2.8,2.59,3.54,4.55h-2.39c-.58-1.38-1.47-2.45-2.66-3.23-1.19-.78-2.63-1.16-4.32-1.16-1.49,0-2.84.35-4.03,1.05-1.19.7-2.13,1.7-2.81,3.01-.68,1.31-1.02,2.83-1.02,4.55s.34,3.24,1.02,4.54c.68,1.3,1.62,2.3,2.81,3,1.19.7,2.54,1.05,4.03,1.05,1.69,0,3.13-.38,4.32-1.15s2.08-1.83,2.66-3.19h2.39c-.74,1.94-1.92,3.44-3.55,4.51-1.63,1.07-3.57,1.6-5.82,1.6-1.86,0-3.55-.44-5.06-1.32-1.51-.88-2.71-2.11-3.58-3.68s-1.31-3.36-1.31-5.36.44-3.79,1.31-5.37Z"/>
        <path class="cls-1" d="M34.01,210.26v7.6h7.71v1.69h-7.71v7.71h8.58v1.69h-10.62v-20.37h10.62v1.69h-8.58Z"/>
        <path class="cls-1" d="M61.95,228.94h-2.04l-11.26-17.11v17.11h-2.04v-20.34h2.04l11.26,17.08v-17.08h2.04v20.34Z"/>
        <path class="cls-1" d="M78.48,208.6v1.69h-5.65v18.66h-2.04v-18.66h-5.68v-1.69h13.36Z"/>
        <path class="cls-1" d="M92.54,228.94l-5.03-8.5h-3.75v8.5h-2.04v-20.34h6.11c2.27,0,3.99.54,5.17,1.63,1.17,1.09,1.76,2.51,1.76,4.28,0,1.47-.42,2.73-1.27,3.77s-2.09,1.71-3.74,2.02l5.24,8.64h-2.45ZM83.75,218.78h4.1c1.59,0,2.79-.39,3.59-1.16.8-.78,1.21-1.81,1.21-3.11s-.39-2.37-1.16-3.1c-.78-.73-2-1.09-3.67-1.09h-4.07v8.47Z"/>
        <path class="cls-1" d="M100.74,208.6v12.81c0,2.02.48,3.51,1.44,4.48.96.97,2.28,1.46,3.94,1.46s2.97-.48,3.91-1.44c.94-.96,1.41-2.46,1.41-4.5v-12.81h2.04v12.78c0,2.58-.68,4.52-2.05,5.82-1.37,1.3-3.15,1.95-5.34,1.95s-3.97-.65-5.34-1.95-2.05-3.24-2.05-5.82v-12.78h2.04Z"/>
        <path class="cls-1" d="M137.91,208.86v20.08h-2.04v-16.04l-7.16,16.04h-1.48l-7.16-15.98v15.98h-2.04v-20.08h2.15l7.77,17.4,7.77-17.4h2.18Z"/>
        <path class="cls-1" d="M154.53,227.82c-1.53-.88-2.74-2.12-3.62-3.7s-1.32-3.37-1.32-5.37.44-3.79,1.32-5.37,2.09-2.81,3.62-3.7c1.53-.88,3.24-1.32,5.12-1.32s3.62.44,5.15,1.32c1.53.88,2.74,2.12,3.61,3.7s1.31,3.37,1.31,5.37-.44,3.79-1.31,5.37-2.08,2.81-3.61,3.7c-1.53.88-3.25,1.32-5.15,1.32s-3.59-.44-5.12-1.32ZM163.72,226.32c1.2-.7,2.15-1.7,2.85-3.01.7-1.31,1.05-2.83,1.05-4.55s-.35-3.24-1.05-4.54c-.7-1.3-1.65-2.3-2.85-3-1.2-.7-2.56-1.05-4.07-1.05s-2.87.35-4.08,1.05c-1.2.7-2.15,1.7-2.85,3s-1.05,2.81-1.05,4.54.35,3.25,1.05,4.55,1.65,2.31,2.85,3.01,2.56,1.05,4.08,1.05,2.87-.35,4.07-1.05Z"/>
        <path class="cls-1" d="M185.87,220.18c.8.95,1.19,2.06,1.19,3.32,0,1.03-.26,1.96-.77,2.78-.51.83-1.27,1.47-2.26,1.95s-2.17.71-3.55.71h-7.04v-20.34h6.84c2.06,0,3.62.48,4.7,1.43,1.08.95,1.62,2.18,1.62,3.7,0,1.26-.34,2.28-1.02,3.07-.68.79-1.55,1.33-2.62,1.64,1.14.21,2.11.8,2.91,1.75ZM175.48,217.59h4.74c1.38,0,2.44-.32,3.19-.97s1.12-1.55,1.12-2.69-.37-2.01-1.12-2.65c-.75-.64-1.84-.96-3.27-.96h-4.66v7.28ZM183.79,226.18c.82-.7,1.24-1.66,1.24-2.88s-.43-2.2-1.29-2.92-2.02-1.09-3.48-1.09h-4.77v7.95h4.86c1.47,0,2.62-.35,3.45-1.05Z"/>
        <path class="cls-1" d="M193.45,228.45c-1.02-.46-1.82-1.12-2.4-1.95s-.89-1.77-.93-2.79h2.15c.1.99.53,1.86,1.31,2.6.78.75,1.91,1.12,3.4,1.12,1.38,0,2.47-.35,3.27-1.06.8-.71,1.21-1.61,1.21-2.69,0-.87-.22-1.58-.67-2.11-.45-.53-1-.93-1.66-1.19-.66-.26-1.57-.55-2.74-.86-1.36-.37-2.43-.73-3.23-1.08-.8-.35-1.47-.89-2.04-1.63s-.84-1.74-.84-3c0-1.05.27-1.98.81-2.81.54-.82,1.31-1.47,2.3-1.94s2.12-.7,3.41-.7c1.88,0,3.4.46,4.55,1.38,1.15.92,1.82,2.11,1.99,3.56h-2.21c-.14-.83-.59-1.58-1.37-2.23-.78-.65-1.82-.97-3.14-.97-1.22,0-2.24.33-3.06.97-.82.65-1.22,1.54-1.22,2.66,0,.85.22,1.54.67,2.07.45.52,1,.92,1.67,1.19.67.27,1.58.56,2.72.87,1.32.37,2.39.73,3.2,1.09.81.36,1.5.91,2.07,1.64.56.74.84,1.73.84,2.97,0,.95-.25,1.85-.76,2.71-.5.85-1.25,1.54-2.24,2.07-.99.52-2.17.79-3.55.79s-2.52-.23-3.54-.7Z"/>
        <path class="cls-1" d="M217.24,227.34v1.6h-9.34v-9.4l-2.5.99v-1.6l2.5-.99v-9.34h2.04v8.56l3.64-1.43v1.6l-3.64,1.43v8.59h7.3Z"/>
        <path class="cls-1" d="M221.93,208.6v12.81c0,2.02.48,3.51,1.44,4.48.96.97,2.28,1.46,3.94,1.46s2.97-.48,3.91-1.44c.94-.96,1.41-2.46,1.41-4.5v-12.81h2.04v12.78c0,2.58-.68,4.52-2.05,5.82-1.37,1.3-3.15,1.95-5.34,1.95s-3.97-.65-5.34-1.95-2.05-3.24-2.05-5.82v-12.78h2.04Z"/>
        <path class="cls-1" d="M255.22,214.54c-.58-1.34-1.47-2.39-2.66-3.16-1.19-.77-2.6-1.15-4.21-1.15-1.51,0-2.87.35-4.07,1.05s-2.15,1.69-2.85,2.98c-.7,1.29-1.05,2.79-1.05,4.5s.35,3.21,1.05,4.51c.7,1.3,1.65,2.3,2.85,3s2.56,1.05,4.07,1.05c1.42,0,2.69-.31,3.83-.92s2.05-1.48,2.74-2.62c.69-1.13,1.08-2.46,1.18-3.97h-8.56v-1.66h10.71v1.48c-.1,1.79-.58,3.4-1.46,4.85-.87,1.45-2.04,2.59-3.51,3.42-1.47.83-3.11,1.25-4.93,1.25s-3.59-.44-5.12-1.32c-1.53-.88-2.74-2.12-3.62-3.7-.88-1.58-1.32-3.37-1.32-5.37s.44-3.79,1.32-5.37c.88-1.58,2.09-2.81,3.62-3.7,1.53-.88,3.24-1.32,5.12-1.32,2.17,0,4.08.54,5.7,1.63,1.63,1.09,2.81,2.6,3.55,4.54h-2.39Z"/>
        <path class="cls-1" d="M264.01,208.6v20.34h-2.04v-20.34h2.04Z"/>
        <path class="cls-1" d="M289.04,220.18c.79.95,1.19,2.06,1.19,3.32,0,1.03-.26,1.96-.77,2.78-.51.83-1.27,1.47-2.26,1.95-.99.48-2.17.71-3.55.71h-7.04v-20.34h6.84c2.06,0,3.62.48,4.7,1.43,1.08.95,1.62,2.18,1.62,3.7,0,1.26-.34,2.28-1.02,3.07-.68.79-1.55,1.33-2.62,1.64,1.14.21,2.11.8,2.91,1.75ZM278.65,217.59h4.74c1.38,0,2.44-.32,3.19-.97.75-.65,1.12-1.55,1.12-2.69s-.37-2.01-1.12-2.65c-.75-.64-1.84-.96-3.27-.96h-4.66v7.28ZM286.96,226.18c.82-.7,1.24-1.66,1.24-2.88s-.43-2.2-1.3-2.92-2.02-1.09-3.48-1.09h-4.77v7.95h4.86c1.47,0,2.62-.35,3.45-1.05Z"/>
        <path class="cls-1" d="M296.03,208.6v20.34h-2.04v-20.34h2.04Z"/>
        <path class="cls-1" d="M301.96,227.14h10.39v1.8h-12.78v-1.63l10.24-16.91h-10.07v-1.8h12.46v1.63l-10.24,16.91Z"/>
        <path class="cls-1" d="M331.27,228.94h-2.04l-11.26-17.11v17.11h-2.04v-20.34h2.04l11.26,17.08v-17.08h2.04v20.34Z"/>
        <path class="cls-1" d="M337.93,210.26v7.6h7.71v1.69h-7.71v7.71h8.59v1.69h-10.62v-20.37h10.62v1.69h-8.59Z"/>
        <path class="cls-1" d="M353.17,228.45c-1.02-.46-1.82-1.12-2.4-1.95s-.89-1.77-.93-2.79h2.15c.1.99.53,1.86,1.31,2.6s1.91,1.12,3.41,1.12c1.38,0,2.47-.35,3.27-1.06.8-.71,1.21-1.61,1.21-2.69,0-.87-.22-1.58-.67-2.11-.45-.53-1-.93-1.66-1.19-.66-.26-1.57-.55-2.74-.86-1.36-.37-2.43-.73-3.23-1.08-.8-.35-1.47-.89-2.04-1.63s-.84-1.74-.84-3c0-1.05.27-1.98.81-2.81.54-.82,1.31-1.47,2.3-1.94.99-.47,2.12-.7,3.4-.7,1.88,0,3.4.46,4.55,1.38,1.15.92,1.82,2.11,1.99,3.56h-2.21c-.14-.83-.59-1.58-1.37-2.23-.78-.65-1.82-.97-3.14-.97-1.22,0-2.24.33-3.06.97-.81.65-1.22,1.54-1.22,2.66,0,.85.22,1.54.67,2.07.45.52,1,.92,1.67,1.19.67.27,1.58.56,2.72.87,1.32.37,2.39.73,3.2,1.09.82.36,1.5.91,2.07,1.64s.84,1.73.84,2.97c0,.95-.25,1.85-.76,2.71-.5.85-1.25,1.54-2.24,2.07s-2.17.79-3.55.79-2.52-.23-3.54-.7Z"/>
        <path class="cls-1" d="M369.13,208.6v12.81c0,2.02.48,3.51,1.44,4.48.96.97,2.27,1.46,3.94,1.46s2.97-.48,3.92-1.44c.94-.96,1.41-2.46,1.41-4.5v-12.81h2.04v12.78c0,2.58-.68,4.52-2.05,5.82s-3.15,1.95-5.34,1.95-3.97-.65-5.34-1.95c-1.37-1.3-2.05-3.24-2.05-5.82v-12.78h2.04Z"/>
        <path class="cls-1" d="M41.72,248.25h-2.28v4.94h-1.55v-11.84h3.82c2.79,0,4.09,1.53,4.09,3.46,0,1.8-1.15,3.43-4.09,3.43ZM41.72,246.98c1.77,0,2.51-.83,2.51-2.16s-.75-2.19-2.51-2.19h-2.28v4.35h2.28Z"/>
        <path class="cls-1" d="M53.1,253.31c-3.33,0-5.94-2.5-5.94-6.05s2.62-6.05,5.94-6.05,5.94,2.5,5.94,6.05-2.6,6.05-5.94,6.05ZM53.1,251.97c2.5,0,4.37-1.82,4.37-4.7s-1.87-4.71-4.37-4.71-4.36,1.8-4.36,4.71,1.87,4.7,4.36,4.7Z"/>
        <path class="cls-1" d="M71.04,247.3c0,3.67-2.39,5.89-6.28,5.89h-3.69v-11.84h3.69c3.89,0,6.28,2.28,6.28,5.94ZM64.76,251.92c3.09,0,4.7-1.73,4.7-4.62s-1.61-4.69-4.7-4.69h-2.14v9.31h2.14Z"/>
        <path class="cls-1" d="M80.07,250.56h-5.16l-.95,2.63h-1.63l4.28-11.77h1.78l4.26,11.77h-1.63l-.95-2.63ZM77.49,243.33l-2.14,5.98h4.28l-2.14-5.98Z"/>
        <path class="cls-1" d="M83.79,241.36h8.02v1.26h-3.23v10.58h-1.55v-10.58h-3.24v-1.26Z"/>
        <path class="cls-1" d="M95.25,247.79v5.4h-1.55v-11.84h1.55v5.49l4.89-5.49h1.95l-5.37,5.93,5.42,5.91h-2.02l-4.87-5.4Z"/>
        <path class="cls-1" d="M103.87,241.36h1.54v11.84h-1.54v-11.84Z"/>
        <path class="cls-1" d="M114.52,239.69v15.3h-1.54v-15.3h1.54Z"/>
        <path class="cls-1" d="M123.6,247.79v5.4h-1.54v-11.84h1.54v5.49l4.89-5.49h1.95l-5.37,5.93,5.42,5.91h-2.02l-4.87-5.4Z"/>
        <path class="cls-1" d="M135.98,253.31c-2.38,0-4.06-1.33-4.09-3.28h1.65c.1.99.8,1.97,2.45,1.97,1.49,0,2.38-.85,2.38-1.97,0-3.19-6.4-1.15-6.4-5.55,0-1.95,1.58-3.28,3.92-3.28s3.74,1.24,3.92,3.04h-1.7c-.1-.8-.85-1.7-2.29-1.71-1.27-.03-2.28.63-2.28,1.9,0,3.06,6.39,1.16,6.39,5.54,0,1.68-1.38,3.35-3.94,3.35Z"/>
        <path class="cls-1" d="M142.19,241.36h1.54v11.84h-1.54v-11.84Z"/>
        <path class="cls-1" d="M152.74,242.61h-4.82v3.96h4.31v1.27h-4.31v4.08h4.82v1.27l-.93.46c-.76.37-1.02.76-1.02,1.19,0,.53.39.82,1,.82.32,0,.71-.08,1.1-.22v1.02c-.39.14-.85.24-1.31.24-1.02,0-2.07-.46-2.07-1.7,0-.64.32-1.24,1.17-1.8h-4.31v-11.85h6.37v1.27Z"/>
        <path class="cls-1" d="M165.89,244.79h-1.85c-.65-1.38-1.94-2.17-3.6-2.17-2.5,0-4.37,1.8-4.37,4.65s1.87,4.64,4.37,4.64c2.33,0,3.92-1.49,4.16-3.84h-4.72v-1.26h6.37v1.19c-.27,2.94-2.6,5.3-5.81,5.3s-5.94-2.48-5.94-6.03,2.62-6.05,5.94-6.05c2.5,0,4.57,1.29,5.45,3.57Z"/>
        <path class="cls-1" d="M173.65,253.31c-3.33,0-5.94-2.5-5.94-6.05s2.62-6.05,5.94-6.05,5.94,2.5,5.94,6.05-2.6,6.05-5.94,6.05ZM173.65,251.97c2.5,0,4.36-1.82,4.36-4.7s-1.87-4.71-4.36-4.71-4.37,1.8-4.37,4.71,1.87,4.7,4.37,4.7Z"/>
        <path class="cls-1" d="M180.71,241.36h1.65l2.58,10.04,2.85-10.04h1.73l2.72,10,2.6-10h1.67l-3.43,11.84h-1.73l-2.75-9.53-2.85,9.53-1.72.02-3.31-11.85Z"/>
        <path class="cls-1" d="M203.56,253.31c-3.33,0-5.94-2.5-5.94-6.05s2.62-6.05,5.94-6.05,5.94,2.5,5.94,6.05-2.6,6.05-5.94,6.05ZM203.56,251.97c2.5,0,4.37-1.82,4.37-4.7s-1.87-4.71-4.37-4.71-4.36,1.8-4.36,4.71,1.87,4.7,4.36,4.7Z"/>
        <path class="cls-1" d="M215.29,253.31c-2.38,0-4.06-1.33-4.09-3.28h1.65c.1.99.8,1.97,2.45,1.97,1.5,0,2.38-.85,2.38-1.97,0-3.19-6.4-1.15-6.4-5.55,0-1.95,1.58-3.28,3.92-3.28s3.74,1.24,3.92,3.04h-1.7c-.1-.8-.85-1.7-2.29-1.71-1.27-.03-2.28.63-2.28,1.9,0,3.06,6.39,1.16,6.39,5.54,0,1.68-1.38,3.35-3.94,3.35ZM216.84,237.35v1.34l-3.62,1.94v-1.16l3.62-2.12Z"/>
        <path class="cls-1" d="M226.84,241.2c2.56,0,4.6,1.29,5.49,3.58h-1.85c-.65-1.43-1.9-2.23-3.63-2.23-2.48,0-4.33,1.8-4.33,4.71s1.85,4.69,4.33,4.69c1.73,0,2.99-.8,3.63-2.21h1.85c-.88,2.28-2.92,3.55-5.49,3.55-3.31,0-5.91-2.48-5.91-6.03s2.6-6.06,5.91-6.06ZM228.59,237.35v1.34l-3.62,1.94v-1.16l3.62-2.12Z"/>
        <path class="cls-1" d="M241.08,239.69v15.3h-1.55v-15.3h1.55Z"/>
        <path class="cls-1" d="M258.59,247.3c0,3.67-2.39,5.89-6.28,5.89h-3.69v-11.84h3.69c3.89,0,6.28,2.28,6.28,5.94ZM252.3,251.92c3.09,0,4.7-1.73,4.7-4.62s-1.61-4.69-4.7-4.69h-2.14v9.31h2.14Z"/>
        <path class="cls-1" d="M265.99,253.31c-3.33,0-5.94-2.5-5.94-6.05s2.62-6.05,5.94-6.05,5.94,2.5,5.94,6.05-2.6,6.05-5.94,6.05ZM265.99,251.97c2.5,0,4.37-1.82,4.37-4.7s-1.87-4.71-4.37-4.71-4.36,1.8-4.36,4.71,1.87,4.7,4.36,4.7Z"/>
        <path class="cls-1" d="M277.79,241.36c2.79,0,4.11,1.54,4.11,3.48,0,1.51-.83,2.96-2.82,3.4l2.97,4.96h-1.85l-2.82-4.84h-1.87v4.84h-1.54v-11.84h3.82ZM277.79,242.63h-2.28v4.48h2.28c1.75,0,2.51-.95,2.51-2.28s-.75-2.21-2.51-2.21Z"/>
        <path class="cls-1" d="M291.28,250.56h-5.16l-.95,2.63h-1.63l4.28-11.77h1.78l4.26,11.77h-1.63l-.95-2.63ZM288.7,243.33l-2.14,5.98h4.28l-2.14-5.98Z"/>
        <path class="cls-1" d="M305.7,247.3c0,3.67-2.39,5.89-6.28,5.89h-3.69v-11.84h3.69c3.89,0,6.28,2.28,6.28,5.94ZM299.41,251.92c3.09,0,4.7-1.73,4.7-4.62s-1.61-4.69-4.7-4.69h-2.14v9.31h2.14Z"/>
        <path class="cls-1" d="M314.78,242.58l-5.74,9.27h5.77v1.34h-7.61v-1.22l5.74-9.27h-5.67v-1.34h7.51v1.22Z"/>
        <path class="cls-1" d="M316.18,241.36h8.02v1.26h-3.23v10.58h-1.54v-10.58h-3.24v-1.26Z"/>
        <path class="cls-1" d="M325.18,241.36h1.65l2.58,10.04,2.85-10.04h1.73l2.72,10,2.6-10h1.67l-3.43,11.84h-1.73l-2.75-9.53-2.85,9.53-1.71.02-3.31-11.85Z"/>
        <path class="cls-1" d="M348.04,253.31c-3.33,0-5.94-2.5-5.94-6.05s2.62-6.05,5.94-6.05,5.94,2.5,5.94,6.05-2.6,6.05-5.94,6.05ZM348.04,251.97c2.5,0,4.36-1.82,4.36-4.7s-1.87-4.71-4.36-4.71-4.37,1.8-4.37,4.71,1.87,4.7,4.37,4.7Z"/>
      </g>
      <g>
        <path class="cls-2" d="M166.12,2.97c2.02-.29,4.16-.53,6.37-.71V.29c-5.5.07-10.12.24-12.83.25h-37.18c0,.94,0,1.48,0,1.48,0,0,1.06.13,1.9.22,3.8.41,13.31,1.55,13.51,9.13.01.47-.04,6.38-.04,6.86v76.9c-.64,7.12-.43,20.6-9.48,22.45-11.34,2.32-14.98-13.76-14.98-13.76,0,0-13.62,9-1.63,13.75,14.84,5.88,36.5.02,40.64-16.79.76-3.09,1.25-6.11,1.65-9.26l-.03-73.57c0-2.5-.21-5.16.58-7.53,1.65-4.93,4.94-6.16,11.55-7.46Z"/>
        <path class="cls-2" d="M275.86,21.06C258.87-3.91,231.44.23,204.86.3c-8.07.02-16.18-.02-24.25,0,0,.66.02,1.94.02,1.94,0,0,2.66-.01,3.15.02,2.83.15,5.68.89,8.18,3.26,1.95,1.84,3.65,5.89,4,8.53,1.49,11.18,8.38,50.6-4.51,68.59-.3.38-4.04,5.38-5,6.74-.8,1.12.31-.26.26-.19l3.12,3.25s-.52,3.85,4.93-1.02c1.56-1.4,3.09-2.7,4.16-4.5,1.08-1.82,8.01-8.14,11.02-21.55,2.22-9.9,2.83-19.89,3-32.72.09-6.99-.1-14.03,0-21.02.04-2.96-.03-5.94,0-8.9h9.49c.68,0,1.37.05,2.04.15,26.48,4.19,39.58,28.79,37.82,54.45-1.18,17.15-10.63,36.24-30.53,37.9-3.99.33-9.56.49-11.54,4.51,20.74.02,46.46-.65,57.39-21.21,9.46-17.79,9.45-40.98-1.76-57.45Z"/>
        <path class="cls-3" d="M223.29,86.72c-.24.86-.59,1.69-1.04,2.46-1.32,2.26-4.37,6.06-9.4,7.05-3.48.68-6.73-.52-10.96-3.71-5.84-4.4-10.9-9.69-13.17-12.18,0,0,0-.01,0-.01,0,0-14.4-16.6-16.33-18.31,4.62-3.14,10.88-5.55,13.33-10.76.07-.12.12-.24.16-.35,1.16-2.49.85-7.51-1.18-9.9-3.84-4.51-20.87-6.62-30.7-6.63l2.46,1.21c4.91-.22,12.32.56,16.07,1.95,3.04,1.12,5.73,3.39,6.52,6.03.44,1.49.73,4.12.51,5.64-.62,4.39-4.41,8.78-7.94,11.26l-5.89-6.13c-3.39-5.16-7.38-10.22-2.05-15.88-3.99-1.11-7.99,4.04-8.59,7.55-1.07,6.26,2.2,10.35,5.51,15,.81,1.14,1.75,2.29,2.56,3.33.06.13-.8.65-1.02.77-4.45,2.3-8.39,4.24-11.79,8.2-14.86,17.3,6.35,31.22,22.09,28.63,6.68-.83,14.02-5.15,18.44-7.49,2.09,1.7,4.44,3.32,6.86,4.46,7.36,3.46,10.9,4.16,17.04,2.36,4.11-1.21,8.64-5.54,9.25-12.83.46-5.47-.32-3.18-.74-1.7ZM169.32,98.41c-6.3-.53-12.09-5.22-13.84-11.28-2.05-7.09.61-17.64,7.69-21.01,1.85-.89,1.6-.02,2.56,1.03,1.78,1.92,13.02,14.82,17.24,19.52.29.35,1.14,1.34,2.38,2.64-3.23,4.25-10.76,9.56-16.03,9.11Z"/>
      </g>
    </g>
  </g>
</svg>